<svg id="Layer_1" enable-background="new 0 0 128 128" viewBox="0 0 128 128" xmlns="http://www.w3.org/2000/svg" xmlns:xlink="http://www.w3.org/1999/xlink"><linearGradient id="SVGID_1_" gradientTransform="matrix(1 0 0 -1 0 130)" gradientUnits="userSpaceOnUse" x1="102.701" x2="12.881" y1="18.896" y2="108.716"><stop offset="0" stop-color="#5360d9"/><stop offset="1" stop-color="#79d5dd"/></linearGradient><path d="m82.3 57.5v-3.7c0-1 .8-1.8 1.8-1.8s1.8.8 1.8 1.8v3.7c0 1-.8 1.8-1.8 1.8s-1.8-.8-1.8-1.8zm41 3.6v28.7c0 1-.8 1.8-1.8 1.8h-9.4v.1c0 7.6-6.2 13.8-13.8 13.8s-13.8-6.2-13.8-13.8c0 0 0 0 0-.1h-33c-1 0-1.8-.8-1.8-1.8s.8-1.8 1.8-1.8h30.8v-5.5h-41.1c5 5.7 4.4 14.4-1.3 19.4s-14.4 4.4-19.4-1.3c-2.2-2.5-3.4-5.7-3.4-9.1 0 0 0 0 0-.1h-10.6c-1 0-1.7-.8-1.8-1.8v-52.6c0-1 .8-1.7 1.8-1.8h8.3v-1.8l-2.6.1c-2.6 0-4.8-2.1-4.8-4.7s2-4.7 4.6-4.8l14.4-.5c1 0 1.8.7 1.8 1.7s-.7 1.8-1.7 1.8l-14.4.5c-.7 0-1.2.6-1.2 1.3s.6 1.2 1.3 1.2l44-1.4c.7 0 1.2-.6 1.2-1.3s-.6-1.2-1.3-1.2c0 0 0 0-.1 0l-21.5.7c-1 0-1.8-.7-1.8-1.7s.7-1.8 1.7-1.8l21.6-.7c2.6-.1 4.8 2 4.9 4.6s-2 4.8-4.6 4.9l-5.3.2v2.9h24.5c1 0 1.8.8 1.8 1.8v42.1h5v-15.2c0-1 .8-1.8 1.8-1.8s1.8.8 1.8 1.8v22.3c3-7 11.1-10.2 18-7.2 3.9 1.7 6.8 5 7.9 9.1h8.1v-10.8h-5.5c-1 0-1.8-.8-1.8-1.8v-5.5c0-1 .8-1.8 1.8-1.8h5.5v-7.1c0-1-.3-1.9-1-2.7l-14.9-18.2c-.8-1-2-1.6-3.3-1.6h-14.9v7.8c0 1-.8 1.8-1.8 1.8s-1.8-.8-1.8-1.8v-9.4c0-1 .8-1.8 1.8-1.8h4.1v-2.2c0-3.2 2.5-5.8 5.6-5.8s5.8 2.5 5.8 5.6v.2 2.2h1.1c2.3 0 4.5 1 6 2.8l14.9 18.2c1.1 1.4 1.7 3.1 1.8 4.9zm-31.7-25.9h4.4v-2.2c0-1.2-.9-2.2-2.2-2.3s-2.2.9-2.3 2.2v.1 2.2zm-26.9 28.9v-3.5h-8.5v3.5zm-8.5 3.5v3.5h8.5v-3.5zm8.5-10.5v-3.5h-8.5v3.5zm0-7v-3.5h-8.5v3.5zm-8.5 29h8.5v-4.4h-8.5zm8.5-40.4h-8.5v4.4h8.5zm-46.5-3.5h29.3v-2.8l-29.3.9zm-10 43.9h17c3.5-1.6 7.6-1.6 11.2 0h16.3v-40.4h-44.4zm9.4 9c.5-2 1.6-3.9 2.9-5.5h-12.2v5.5zm23.5 3.5c0-5.7-4.6-10.3-10.3-10.3s-10.2 4.7-10.2 10.3 4.6 10.3 10.3 10.3c5.6 0 10.2-4.6 10.2-10.3zm32.7-12.5v-40.4h-5.5v40.4zm34.8 12.5c0-5.7-4.6-10.3-10.3-10.3s-10.2 4.7-10.2 10.3 4.6 10.3 10.3 10.3c5.6 0 10.2-4.6 10.2-10.3zm11.2-17.8v-2h-3.8v2zm-8-15.5c-5.4 0-21.8 0-21.8 0-1 0-1.8-.8-1.8-1.8v-13.6c0-1 .8-1.7 1.8-1.7h10.6c.5 0 1 .2 1.4.6 0 0 8.4 10.2 11.2 13.6.8 1.2.1 2.9-1.4 2.9zm-3.7-3.5-8.3-10.1h-8v10.1zm-95.6 6.1c-1 0-1.7.8-1.8 1.8v10c0 1 .8 1.8 1.8 1.8s1.8-.8 1.8-1.8v-10c-.1-1-.8-1.8-1.8-1.8zm26.1 30.7c0 4.3-3.5 7.8-7.8 7.8s-7.8-3.5-7.8-7.8 3.5-7.8 7.8-7.8c4.3.1 7.8 3.6 7.8 7.8zm-3.5 0c0-2.3-1.9-4.3-4.3-4.3s-4.3 1.9-4.3 4.3 1.9 4.3 4.3 4.3 4.3-1.9 4.3-4.3zm71 0c0 4.3-3.5 7.8-7.8 7.8s-7.8-3.5-7.8-7.8 3.5-7.8 7.8-7.8c4.4.1 7.8 3.6 7.8 7.8zm-3.5 0c0-2.3-1.9-4.3-4.3-4.3s-4.3 1.9-4.3 4.3 1.9 4.3 4.3 4.3 4.3-1.9 4.3-4.3zm-11.3-29c-1 0-1.8.8-1.8 1.8s.8 1.8 1.8 1.8h6c1 0 1.8-.8 1.8-1.8s-.8-1.8-1.8-1.8zm-70-15.8v6c0 1-.8 1.8-1.8 1.8h-6c-1 0-1.7-.8-1.8-1.8v-6c0-1 .8-1.8 1.8-1.8h6c1 0 1.8.8 1.8 1.8zm-3.5 1.7h-2.5v2.5h2.5zm7.8 4.3v-6c0-1 .8-1.8 1.8-1.8h6c1 0 1.7.8 1.8 1.7v6c0 1-.8 1.8-1.8 1.8h-6c-1 0-1.8-.8-1.8-1.7zm3.5-1.8h2.5v-2.5h-2.5zm10.2 1.8v-6c0-1 .8-1.8 1.8-1.8h6c1 0 1.7.8 1.8 1.7v6c0 1-.8 1.8-1.8 1.8h-6c-1 0-1.8-.8-1.8-1.7zm3.5-1.8h2.5v-2.5h-2.5z" fill="url(#SVGID_1_)"/></svg>