<?xml version="1.0"?>
<svg xmlns="http://www.w3.org/2000/svg" xmlns:xlink="http://www.w3.org/1999/xlink" width="512" height="512" viewBox="0 0 128 128"><defs><linearGradient id="a" x1="115.944" y1="124.55" x2="5.787" y2="14.393" gradientUnits="userSpaceOnUse"><stop offset="0" stop-color="#46afe0"/><stop offset="1" stop-color="#8ed527"/></linearGradient></defs><path d="M102.87,79.9a1.744,1.744,0,0,0,1.5-1.724V56.212L123,25.091a1.75,1.75,0,0,0-1.5-2.649h-47a1.75,1.75,0,0,0,0,3.5h3.625l-4.789,8H57.51l4.79-8h4.033a1.75,1.75,0,0,0,0-3.5H61.308a1.751,1.751,0,0,0-1.5.852l-34.423,57.5a1.749,1.749,0,0,0,1.5,2.648H87.077a1.749,1.749,0,0,0,1.5-.851L90.2,79.875c.055.013.11.021.166.029V101.62H64a1.75,1.75,0,0,0-1.75,1.75v10.5H54.54V112.5a1.75,1.75,0,0,0-1.75-1.75H48.538V97.5a1.75,1.75,0,0,0-1.75-1.75H42.57V91.5a1.75,1.75,0,0,0-1.75-1.75h-6a1.75,1.75,0,0,0-1.75,1.75v4.25H20.7V91.5a1.749,1.749,0,0,0-1.75-1.75h-6A1.75,1.75,0,0,0,11.2,91.5v4.25H6.98A1.75,1.75,0,0,0,5.23,97.5v24a1.75,1.75,0,0,0,1.75,1.75H46.788a1.75,1.75,0,0,0,1.75-1.75v-1.25H52.79a1.75,1.75,0,0,0,1.75-1.75v-1.13H64a1.75,1.75,0,0,0,1.75-1.75v-10.5H90.37v2.63H84.146a1.749,1.749,0,0,0-1.75,1.75v4.25H76.712a1.75,1.75,0,0,0-1.75,1.75v6a1.75,1.75,0,0,0,1.75,1.75h7.434a1.75,1.75,0,1,0,0-3.5H78.462v-2.5H114.77v2.5H93a1.75,1.75,0,0,0,0,3.5h23.52a1.75,1.75,0,0,0,1.75-1.75v-6a1.75,1.75,0,0,0-1.75-1.75h-5.685V109.5a1.749,1.749,0,0,0-1.75-1.75H102.87v-6.375a1.75,1.75,0,0,0-3.5,0v6.375h-5.5V79.93h5.5V83.9a1.75,1.75,0,0,0,3.5,0ZM36.57,93.25h2.5v2.5h-2.5Zm-21.87,0h2.5v2.5H14.7Zm30.338,26.5H8.73V99.25H45.038Zm6-3h-2.5v-2.5h2.5Zm56.295-3H85.9v-2.5h21.439ZM100.87,76.43h-8.5v-.173l8.5-14.2ZM49.876,79.942l4.789-8H70.49l-4.789,8Zm-8.23-19.5H57.471l-4.789,8H36.856Zm6.884-11.5H64.356l-4.79,8H43.741Zm58.209-3.5H90.433l4.79-8h16.305Zm-2.1,3.5-4.789,8h-16.3l4.789-8Zm-25.173,8H63.645l4.789-8H84.259Zm-22.71,11.5,4.79-8H77.375l-4.79,8Zm24.693-8H97.759l-4.79,8h-16.3Zm32.17-26.5H97.318l4.789-8h16.306Zm-31.419-8H98.029l-4.79,8H77.414Zm-6.885,11.5H91.144l-4.789,8H70.53Zm-4.079,0-4.789,8H50.626l4.789-8Zm-36.479,34.5H50.586l-4.789,8H29.972Zm51.323,8H69.779l4.79-8h16.3Zm16.786,9.933V94.25a1.75,1.75,0,0,1-3.5,0V89.875a1.75,1.75,0,0,1,3.5,0ZM6.5,24.75H9.374a13.651,13.651,0,0,0,2.757,6.639L10.09,33.43a1.754,1.754,0,0,0,2.48,2.48l2.041-2.041a13.651,13.651,0,0,0,6.639,2.757V39.5a1.75,1.75,0,0,0,3.5,0V36.626a13.651,13.651,0,0,0,6.639-2.757L33.43,35.91a1.754,1.754,0,1,0,2.48-2.48l-2.041-2.041a13.651,13.651,0,0,0,2.757-6.639H39.5a1.75,1.75,0,0,0,0-3.5H36.626a13.651,13.651,0,0,0-2.757-6.639L35.91,12.57a1.754,1.754,0,1,0-2.48-2.48l-2.041,2.04A13.66,13.66,0,0,0,24.75,9.374V6.5a1.75,1.75,0,0,0-3.5,0V9.374a13.66,13.66,0,0,0-6.639,2.756L12.57,10.09a1.754,1.754,0,0,0-2.48,2.48l2.041,2.041A13.651,13.651,0,0,0,9.374,21.25H6.5a1.75,1.75,0,0,0,0,3.5Zm16.5-12A10.25,10.25,0,1,1,12.75,23,10.261,10.261,0,0,1,23,12.75Zm-8.27,95V114a1.75,1.75,0,0,1-3.5,0v-6.25a1.75,1.75,0,0,1,3.5,0Zm15.7.735a1.749,1.749,0,0,1,.227,1.588L28.538,116.2a1.751,1.751,0,0,1-1.654,1.177,1.716,1.716,0,0,1-.573-.1,1.749,1.749,0,0,1-1.08-2.226l1.318-3.8H24.761a1.749,1.749,0,0,1-1.653-2.323l2.123-6.125a1.75,1.75,0,0,1,3.307,1.146l-1.318,3.8h1.788A1.752,1.752,0,0,1,30.434,108.485Z" fill="url(#a)"/></svg>
