<svg height="512" viewBox="0 0 64 64" width="512" xmlns="http://www.w3.org/2000/svg" xmlns:xlink="http://www.w3.org/1999/xlink"><linearGradient id="New_Gradient_Swatch_3" gradientUnits="userSpaceOnUse" x1="32" x2="32" y1="63.741" y2="-.455"><stop offset="0" stop-color="#006df0"/><stop offset="1" stop-color="#00e7f0"/></linearGradient><linearGradient id="New_Gradient_Swatch_3-2" x1="19" x2="19" xlink:href="#New_Gradient_Swatch_3" y1="63.741" y2="-.455"/><linearGradient id="New_Gradient_Swatch_3-3" x1="21.5" x2="21.5" xlink:href="#New_Gradient_Swatch_3" y1="63.741" y2="-.455"/><linearGradient id="New_Gradient_Swatch_3-6" x1="13.5" x2="13.5" xlink:href="#New_Gradient_Swatch_3" y1="63.741" y2="-.455"/><linearGradient id="New_Gradient_Swatch_3-9" x1="50" x2="50" xlink:href="#New_Gradient_Swatch_3" y1="63.741" y2="-.455"/><g id="glass_&#xB7;_shipping_&#xB7;_box_&#xB7;_package_&#xB7;_delivery" data-name="glass  &#xB7; shipping &#xB7;  box &#xB7; package &#xB7; delivery"><path d="m61.89 14.55-6-12a.988.988 0 0 0 -.89-.55h-46a.988.988 0 0 0 -.89.55l-6 12a1 1 0 0 0 -.11.45v46a1 1 0 0 0 1 1h58a1 1 0 0 0 1-1v-46a1 1 0 0 0 -.11-.45zm-7.51-10.55 5 10h-20.53l-1.67-10zm-25.53 0h6.3l1.67 10h-9.64zm-1.85 12h10v12h-10zm-17.38-12h17.2l-1.67 10h-20.53zm50.38 56h-56v-44h21v13a1 1 0 0 0 1 1h12a1 1 0 0 0 1-1v-13h21z" fill="url(#New_Gradient_Swatch_3)"/><path d="m29 38h-20a1 1 0 0 0 -1 1v16a1 1 0 0 0 1 1h20a1 1 0 0 0 1-1v-16a1 1 0 0 0 -1-1zm-1 16h-18v-14h18z" fill="url(#New_Gradient_Swatch_3-2)"/><g fill="url(#New_Gradient_Swatch_3-3)"><path d="m18 48h7a1 1 0 0 0 0-2h-7a1 1 0 0 0 0 2z"/><path d="m18 44h7a1 1 0 0 0 0-2h-7a1 1 0 0 0 0 2z"/><path d="m18 52h7a1 1 0 0 0 0-2h-7a1 1 0 0 0 0 2z"/></g><path d="m13 48h1a1 1 0 0 0 0-2h-1a1 1 0 0 0 0 2z" fill="url(#New_Gradient_Swatch_3-6)"/><path d="m13 44h1a1 1 0 0 0 0-2h-1a1 1 0 0 0 0 2z" fill="url(#New_Gradient_Swatch_3-6)"/><path d="m13 52h1a1 1 0 0 0 0-2h-1a1 1 0 0 0 0 2z" fill="url(#New_Gradient_Swatch_3-6)"/><path d="m55 38h-10a1 1 0 0 0 -1 1v5a6.006 6.006 0 0 0 5 5.91v4.09h-2a1 1 0 0 0 0 2h6a1 1 0 0 0 0-2h-2v-4.09a6.006 6.006 0 0 0 5-5.91v-5a1 1 0 0 0 -1-1zm-1 6a4 4 0 0 1 -8 0v-4h8z" fill="url(#New_Gradient_Swatch_3-9)"/></g></svg>