<svg id="Capa_1" enable-background="new 0 0 512 512" height="512" viewBox="0 0 512 512" width="512" xmlns="http://www.w3.org/2000/svg" xmlns:xlink="http://www.w3.org/1999/xlink"><linearGradient id="SVGID_1_" gradientUnits="userSpaceOnUse" x1="256" x2="256" y1="511.996" y2=".005"><stop offset="0" stop-color="#5558ff"/><stop offset="1" stop-color="#00c0ff"/></linearGradient><g><g><path d="m497.307 481.991c-7.285-.148-14.381-3.827-18.077-9.371-1.085-1.627-2.263-3.169-3.507-4.643 22.951-25.122 36.277-58.389 36.277-91.981 0-8.284-6.716-15-15-15h-226v-30h195c8.284 0 15-6.716 15-15 0-98.548-34.661-186.748-110.207-251.862-52.833-45.537-105.319-61.963-110.293-63.449-.035-.011-.071-.021-.106-.032-9.997-2.955-19.394 4.604-19.394 14.343 0 80.494-121.976 232.073-176.038 290.843-8.82 9.585-2.014 25.157 11.038 25.157h165v30h-226c-8.284 0-15 6.716-15 15 0 34.026 13.627 67.63 37.074 92.847-.981 1.215-1.929 2.462-2.805 3.777-4.738 7.107-13.158 9.491-18.962 9.372-8.296-.168-15.135 6.408-15.304 14.69-.161 7.856 5.803 15.315 15.776 15.315 17.485 0 34.057-8.644 43.452-22.735 3.972-5.958 10.357-9.375 17.519-9.375s13.547 3.417 17.519 9.375c9.491 14.236 25.371 22.735 42.48 22.735 17.108 0 32.991-8.5 42.481-22.735 3.972-5.958 10.357-9.375 17.519-9.375s13.547 3.417 17.519 9.375c9.491 14.236 25.371 22.735 42.481 22.735 17.109 0 32.99-8.499 42.48-22.735 3.973-5.958 10.358-9.375 17.52-9.375s13.547 3.417 17.52 9.375c9.49 14.236 25.37 22.735 42.48 22.735 17.108 0 32.99-8.5 42.48-22.735 3.973-5.958 10.358-9.375 17.52-9.375 6.972 0 13.463 3.292 17.52 9.376 9.112 13.668 25.368 22.375 42.425 22.724 8.294.164 15.135-6.409 15.304-14.69.168-8.285-6.409-15.137-14.691-15.306zm-145.182-394.339c62.101 53.962 95.226 125.684 98.59 213.344h-154.455c17.277-20.783 34.74-54.324 34.74-105 0-57.182-22.451-113.82-40.454-150.042 17.806 9.225 39.783 22.759 61.579 41.698zm-81.125-12.578c14.782 32.899 30 77.348 30 120.922 0 33.205-8.675 61.198-25.785 83.202-1.408 1.811-2.818 3.5-4.215 5.082zm-161.794 225.922c45.909-53.59 99.877-124.568 131.794-187.192v187.192zm340.65 150.606c-4.224-1.119-8.621-1.717-13.106-1.717-17.109 0-32.99 8.499-42.48 22.735-3.973 5.958-10.358 9.376-17.52 9.376s-13.547-3.417-17.52-9.376c-9.49-14.236-25.371-22.735-42.48-22.735s-32.99 8.499-42.481 22.735c-3.972 5.958-10.357 9.376-17.519 9.376s-13.547-3.417-17.519-9.376c-9.491-14.236-25.372-22.735-42.481-22.735s-32.99 8.499-42.48 22.735c-3.973 5.958-10.358 9.376-17.52 9.376-7.161 0-13.546-3.417-17.519-9.376-9.491-14.236-25.372-22.735-42.481-22.735-4.901 0-9.693.719-14.271 2.049-16.804-16.463-27.918-38.139-31.348-60.948h449.737c-3.413 22.637-14.407 44.197-31.012 60.616z" fill="url(#SVGID_1_)"/></g></g></svg>